<svg width="24" height="24" viewBox="0 0 24 24" fill="none" xmlns="http://www.w3.org/2000/svg">
<path d="M12.0266 0C5.25097 0 0 4.95217 0 11.6411C0 15.1397 1.43758 18.163 3.77758 20.2515C4.18161 20.6149 4.09839 20.8254 4.1671 23.0692C4.17251 23.2264 4.21629 23.3799 4.29462 23.5162C4.37295 23.6526 4.48346 23.7677 4.6165 23.8516C4.74954 23.9354 4.90107 23.9854 5.05788 23.9973C5.21469 24.0091 5.37202 23.9824 5.51613 23.9194C8.07629 22.792 8.10919 22.7029 8.54323 22.821C15.9605 24.8626 24 20.1156 24 11.6411C24 4.95217 18.8027 0 12.0266 0Z" fill="url(#paint0_linear_42_306)"/>
<path d="M7.88623 14H4.16748V13.313L6.56348 9.87793H4.23242V9.00293H7.82129V9.68652L5.42871 13.125H7.88623V14ZM10.166 10.1001C10.6787 10.1001 11.0718 10.2118 11.3452 10.4351C11.6187 10.6584 11.7554 10.9979 11.7554 11.4536V14H11.0273L10.8257 13.4805H10.7983C10.689 13.6172 10.5773 13.7288 10.4634 13.8154C10.3494 13.902 10.2184 13.9658 10.0703 14.0068C9.9222 14.0479 9.74219 14.0684 9.53027 14.0684C9.30469 14.0684 9.10189 14.0251 8.92188 13.9385C8.74414 13.8519 8.604 13.7197 8.50146 13.542C8.39893 13.362 8.34766 13.1341 8.34766 12.8584C8.34766 12.4528 8.49007 12.1543 8.7749 11.9629C9.05973 11.7692 9.48698 11.6621 10.0566 11.6416L10.7197 11.6211V11.4536C10.7197 11.2531 10.6673 11.1061 10.5625 11.0127C10.4577 10.9193 10.3118 10.8726 10.125 10.8726C9.94043 10.8726 9.75928 10.8988 9.58154 10.9512C9.40381 11.0036 9.22607 11.0697 9.04834 11.1494L8.70312 10.4453C8.90592 10.3382 9.13265 10.2539 9.3833 10.1924C9.63623 10.1309 9.89714 10.1001 10.166 10.1001ZM10.7197 12.2295L10.3164 12.2432C9.97917 12.2523 9.74447 12.3127 9.6123 12.4243C9.48242 12.536 9.41748 12.6829 9.41748 12.8652C9.41748 13.0247 9.46419 13.1387 9.55762 13.207C9.65104 13.2731 9.77295 13.3062 9.92334 13.3062C10.1466 13.3062 10.3346 13.2401 10.4873 13.1079C10.6423 12.9757 10.7197 12.7878 10.7197 12.5439V12.2295ZM13.8745 14H12.832V8.68164H13.8745V14ZM18.4443 12.0825C18.4443 12.4015 18.401 12.6841 18.3145 12.9302C18.2301 13.1763 18.106 13.3848 17.9419 13.5557C17.7801 13.7243 17.5841 13.8519 17.354 13.9385C17.1261 14.0251 16.8687 14.0684 16.5815 14.0684C16.3127 14.0684 16.0654 14.0251 15.8398 13.9385C15.6165 13.8519 15.4217 13.7243 15.2554 13.5557C15.0913 13.3848 14.9637 13.1763 14.8726 12.9302C14.7837 12.6841 14.7393 12.4015 14.7393 12.0825C14.7393 11.6587 14.8145 11.2998 14.9648 11.0059C15.1152 10.7119 15.3294 10.4886 15.6074 10.3359C15.8854 10.1833 16.217 10.1069 16.6021 10.1069C16.9598 10.1069 17.2765 10.1833 17.5522 10.3359C17.8302 10.4886 18.0479 10.7119 18.2051 11.0059C18.3646 11.2998 18.4443 11.6587 18.4443 12.0825ZM15.8022 12.0825C15.8022 12.3332 15.8296 12.5439 15.8843 12.7148C15.939 12.8857 16.0244 13.0145 16.1406 13.1011C16.2568 13.1877 16.4084 13.231 16.5952 13.231C16.7798 13.231 16.929 13.1877 17.043 13.1011C17.1592 13.0145 17.2435 12.8857 17.2959 12.7148C17.3506 12.5439 17.3779 12.3332 17.3779 12.0825C17.3779 11.8296 17.3506 11.62 17.2959 11.4536C17.2435 11.285 17.1592 11.1585 17.043 11.0742C16.9268 10.9899 16.7752 10.9478 16.5884 10.9478C16.3127 10.9478 16.1121 11.0423 15.9868 11.2314C15.8638 11.4206 15.8022 11.7043 15.8022 12.0825Z" fill="white"/>
<defs>
<linearGradient id="paint0_linear_42_306" x1="1.5" y1="5.5" x2="22" y2="20.5" gradientUnits="userSpaceOnUse">
<stop stop-color="#0080BE"/>
<stop offset="0.396668" stop-color="#5DC9F0"/>
<stop offset="1" stop-color="#0080BE"/>
</linearGradient>
</defs>
</svg>
