<svg width="24" height="17" viewBox="0 0 24 17" fill="none" xmlns="http://www.w3.org/2000/svg">
<path d="M23.4985 2.62863C23.2225 1.59394 22.4092 0.779056 21.3766 0.502513C19.505 0 12 0 12 0C12 0 4.49503 0 2.62336 0.502513C1.59077 0.7791 0.777523 1.59394 0.501503 2.62863C0 4.50406 0 8.41698 0 8.41698C0 8.41698 0 12.3299 0.501503 14.2053C0.777523 15.24 1.59077 16.0209 2.62336 16.2975C4.49503 16.8 12 16.8 12 16.8C12 16.8 19.505 16.8 21.3766 16.2975C22.4092 16.0209 23.2225 15.24 23.4985 14.2053C24 12.3299 24 8.41698 24 8.41698C24 8.41698 24 4.50406 23.4985 2.62863ZM9.54544 11.9696V4.86434L15.8181 8.41706L9.54544 11.9696Z" fill="url(#paint0_linear_42_307)"/>
<defs>
<linearGradient id="paint0_linear_42_307" x1="-0.5" y1="1" x2="23" y2="16.5" gradientUnits="userSpaceOnUse">
<stop stop-color="#0080BE"/>
<stop offset="0.375" stop-color="#5DC9F0"/>
<stop offset="1" stop-color="#0080BE"/>
</linearGradient>
</defs>
</svg>
