<svg width="24" height="24" viewBox="0 0 24 24" fill="none" xmlns="http://www.w3.org/2000/svg">
<path d="M12.0266 0C5.25097 0 0 4.95219 0 11.6411C0 15.1396 1.43758 18.163 3.77758 20.2515C4.18161 20.6149 4.09839 20.8254 4.1671 23.0692C4.17251 23.2264 4.21629 23.3799 4.29462 23.5162C4.37295 23.6526 4.48346 23.7677 4.6165 23.8516C4.74954 23.9354 4.90107 23.9854 5.05788 23.9973C5.21469 24.0091 5.37202 23.9824 5.51613 23.9194C8.07629 22.792 8.10919 22.7029 8.54323 22.821C15.9605 24.8626 24 20.1155 24 11.6411C24 4.95219 18.8027 0 12.0266 0ZM19.2479 8.95836L15.7156 14.5507C15.5823 14.761 15.4069 14.9415 15.2005 15.0808C14.9941 15.2202 14.7612 15.3154 14.5163 15.3605C14.2714 15.4056 14.0198 15.3997 13.7773 15.343C13.5348 15.2863 13.3067 15.1802 13.1071 15.0313L10.2968 12.9278C10.1711 12.8335 10.0183 12.7826 9.86129 12.7826C9.70425 12.7826 9.55144 12.8335 9.42581 12.9278L5.63371 15.804C5.12758 16.1878 4.46468 15.5814 4.80581 15.0458L8.33807 9.45339C8.4714 9.24304 8.64676 9.06251 8.85314 8.92313C9.05953 8.78374 9.29248 8.68851 9.5374 8.64339C9.78232 8.59828 10.0339 8.60426 10.2764 8.66096C10.5189 8.71765 10.7471 8.82385 10.9466 8.97288L13.756 11.0759C13.8816 11.1701 14.0344 11.2211 14.1915 11.2211C14.3485 11.2211 14.5013 11.1701 14.6269 11.0759L18.421 8.20252C18.9261 7.81637 19.589 8.4222 19.2479 8.95836Z" fill="url(#paint0_linear_42_305)"/>
<defs>
<linearGradient id="paint0_linear_42_305" x1="5.53206e-07" y1="3.5" x2="22" y2="24" gradientUnits="userSpaceOnUse">
<stop stop-color="#0080BE"/>
<stop offset="0.377035" stop-color="#5DC9F0"/>
<stop offset="1" stop-color="#0080BE"/>
</linearGradient>
</defs>
</svg>
